STARTFONT 2.1
FONT -gbdfed-Unknown-Medium-R-Normal--16-120-96-96-P-100-ISO8859-5
SIZE 12 96 96
FONTBOUNDINGBOX 8 14 0 -2
COMMENT "Generated by fontforge, http://fontforge.sourceforge.net"
STARTPROPERTIES 8
POINT_SIZE 120
PIXEL_SIZE 16
RESOLUTION_X 96
RESOLUTION_Y 96
FONT_ASCENT 12
FONT_DESCENT 4
AVERAGE_WIDTH 100
SPACING "P"
ENDPROPERTIES
CHARS 17
STARTCHAR comma
ENCODING 44
SWIDTH 1000 0
DWIDTH 16 0
BBX 2 4 0 -2
BITMAP
C0
C0
40
80
ENDCHAR
STARTCHAR period
ENCODING 46
SWIDTH 1000 0
DWIDTH 16 0
BBX 2 2 0 0
BITMAP
C0
C0
ENDCHAR
STARTCHAR slash
ENCODING 47
SWIDTH 1000 0
DWIDTH 16 0
BBX 5 12 0 0
BITMAP
08
08
10
10
10
20
20
40
40
40
80
80
ENDCHAR
STARTCHAR zero
ENCODING 48
SWIDTH 1000 0
DWIDTH 16 0
BBX 5 12 0 0
BITMAP
70
88
88
88
88
88
88
88
88
88
88
70
ENDCHAR
STARTCHAR one
ENCODING 49
SWIDTH 1000 0
DWIDTH 16 0
BBX 5 12 0 0
BITMAP
20
60
A0
20
20
20
20
20
20
20
20
F8
ENDCHAR
STARTCHAR two
ENCODING 50
SWIDTH 1000 0
DWIDTH 16 0
BBX 5 12 0 0
BITMAP
70
88
08
08
10
10
20
20
40
40
80
F8
ENDCHAR
STARTCHAR three
ENCODING 51
SWIDTH 1000 0
DWIDTH 16 0
BBX 5 12 0 0
BITMAP
70
88
08
08
10
60
10
08
08
08
88
70
ENDCHAR
STARTCHAR four
ENCODING 52
SWIDTH 1000 0
DWIDTH 16 0
BBX 5 12 0 0
BITMAP
10
10
30
30
50
50
90
90
F8
10
10
10
ENDCHAR
STARTCHAR five
ENCODING 53
SWIDTH 1000 0
DWIDTH 16 0
BBX 5 12 0 0
BITMAP
F8
80
80
80
E0
10
08
08
08
08
88
70
ENDCHAR
STARTCHAR six
ENCODING 54
SWIDTH 1000 0
DWIDTH 16 0
BBX 5 12 0 0
BITMAP
70
88
80
80
80
F0
88
88
88
88
88
70
ENDCHAR
STARTCHAR seven
ENCODING 55
SWIDTH 1000 0
DWIDTH 16 0
BBX 6 12 0 0
BITMAP
FC
84
08
08
08
10
10
20
20
20
40
40
ENDCHAR
STARTCHAR eight
ENCODING 56
SWIDTH 1000 0
DWIDTH 16 0
BBX 5 12 0 0
BITMAP
70
88
88
88
88
70
88
88
88
88
88
70
ENDCHAR
STARTCHAR nine
ENCODING 57
SWIDTH 1000 0
DWIDTH 16 0
BBX 5 12 0 0
BITMAP
70
88
88
88
88
88
78
08
08
08
88
70
ENDCHAR
STARTCHAR colon
ENCODING 58
SWIDTH 1000 0
DWIDTH 16 0
BBX 2 8 0 0
BITMAP
C0
C0
00
00
00
00
C0
C0
ENDCHAR
STARTCHAR semicolon
ENCODING 59
SWIDTH 1000 0
DWIDTH 16 0
BBX 2 10 0 -2
BITMAP
C0
C0
00
00
00
00
C0
C0
40
80
ENDCHAR
STARTCHAR afii10043
ENCODING 201
SWIDTH 1000 0
DWIDTH 16 0
BBX 8 13 0 -1
BITMAP
92
92
92
92
92
92
92
92
92
92
92
FF
01
ENDCHAR
ENDFONT
